<?xml version="1.0" encoding="iso-8859-1"?>
<!-- Generator: Adobe Illustrator 18.0.0, SVG Export Plug-In . SVG Version: 6.00 Build 0)  -->
<!DOCTYPE svg PUBLIC "-//W3C//DTD SVG 1.1//EN" "http://www.w3.org/Graphics/SVG/1.1/DTD/svg11.dtd">
<svg version="1.1" id="Capa_1" xmlns="http://www.w3.org/2000/svg" xmlns:xlink="http://www.w3.org/1999/xlink" x="0px" y="0px"
	 viewBox="0 0 30.093 30.093" style="enable-background:new 0 0 30.093 30.093;" xml:space="preserve">
<g>
	<path d="M17.118,16.996H12.96c-0.369,0-0.708,0.203-0.882,0.528c-0.174,0.325-0.156,0.72,0.048,1.027l2.079,3.133
		c0.088,0.133,0.207,0.239,0.342,0.315v1.859c-0.473-0.091-0.921-0.31-1.272-0.662c-0.195-0.195-0.512-0.195-0.707,0
		c-0.195,0.195-0.195,0.512,0,0.707c0.662,0.663,1.542,1.027,2.479,1.027c0.937,0,1.817-0.365,2.479-1.027
		c0.195-0.195,0.195-0.512,0-0.707c-0.195-0.195-0.512-0.195-0.707,0c-0.351,0.352-0.799,0.571-1.273,0.662v-1.87
		c0.128-0.076,0.242-0.177,0.327-0.305l2.079-3.133c0.204-0.308,0.223-0.702,0.048-1.027C17.826,17.199,17.487,16.996,17.118,16.996
		z"/>
	<path d="M27.981,2.6c-1.926-1.217-4.305-0.91-5.312,0.685c-0.194,0.308-0.304,0.644-0.373,0.99
		c-2.093-1.465-4.562-2.391-7.25-2.391c-2.687,0-5.157,0.926-7.25,2.391c-0.068-0.346-0.178-0.683-0.372-0.99
		C6.416,1.689,4.038,1.383,2.112,2.6c-1.926,1.217-2.67,3.497-1.662,5.091C1.05,8.642,2.141,9.123,3.33,9.109
		c-1.313,2.197-2.075,4.638-2.075,6.952c0,6.714,6.187,12.177,13.792,12.177c7.604,0,13.792-5.462,13.792-12.177
		c0-2.314-0.763-4.755-2.075-6.952c1.189,0.015,2.28-0.467,2.88-1.418C30.651,6.096,29.907,3.816,27.981,2.6z M26.838,16.061
		c0,5.611-5.289,10.177-11.792,10.177c-6.502,0-11.792-4.565-11.792-10.177c0-5.516,5.26-12.177,11.792-12.177
		C21.578,3.884,26.838,10.545,26.838,16.061z"/>
	<path d="M12.822,15.351c0.236-0.724,0.124-1.517-0.302-2.148l-2.245-3.319C9.643,8.95,8.459,8.564,7.398,8.945
		c-1.062,0.382-1.729,1.435-1.622,2.558l0.382,3.988c0.073,0.758,0.492,1.44,1.135,1.848c0.643,0.408,1.439,0.496,2.156,0.238
		l1.861-0.67C12.028,16.649,12.586,16.075,12.822,15.351z M10.602,15.754c-0.609,0-1.102-0.493-1.102-1.102
		c0-0.609,0.493-1.102,1.102-1.102s1.102,0.493,1.102,1.102C11.704,15.261,11.211,15.754,10.602,15.754z"/>
	<path d="M19.784,9.885l-2.245,3.318c-0.427,0.631-0.538,1.424-0.302,2.148c0.237,0.724,0.794,1.298,1.511,1.556l1.862,0.669
		c0.716,0.258,1.512,0.17,2.156-0.237c0.644-0.408,1.062-1.09,1.135-1.848l0.382-3.987c0.108-1.123-0.559-2.175-1.621-2.557
		C21.601,8.564,20.416,8.951,19.784,9.885z M19.491,15.754c-0.609,0-1.102-0.493-1.102-1.102c0-0.609,0.493-1.102,1.102-1.102
		c0.609,0,1.102,0.493,1.102,1.102C20.593,15.261,20.1,15.754,19.491,15.754z"/>
</g>
<g>
</g>
<g>
</g>
<g>
</g>
<g>
</g>
<g>
</g>
<g>
</g>
<g>
</g>
<g>
</g>
<g>
</g>
<g>
</g>
<g>
</g>
<g>
</g>
<g>
</g>
<g>
</g>
<g>
</g>
</svg>
